<mxfile host="Electron" modified="2023-12-13T06:34:19.965Z" agent="Mozilla/5.0 (Windows NT 10.0; Win64; x64) AppleWebKit/537.36 (KHTML, like Gecko) draw.io/22.1.2 Chrome/114.0.5735.289 Electron/25.9.4 Safari/537.36" etag="LkJZlXjlgzGQamGtBHsW" version="22.1.2" type="device">
  <diagram name="Page-1" id="3Jh__mlHJgZ1XUHHneo5">
    <mxGraphModel dx="1877" dy="621" grid="1" gridSize="10" guides="1" tooltips="1" connect="1" arrows="1" fold="1" page="1" pageScale="1" pageWidth="827" pageHeight="1169" math="0" shadow="0">
      <root>
        <mxCell id="0" />
        <mxCell id="1" parent="0" />
        <mxCell id="tshHDa5LR5lKPnph0Jsl-3" value="" style="edgeStyle=orthogonalEdgeStyle;rounded=0;orthogonalLoop=1;jettySize=auto;html=1;" edge="1" parent="1" source="tshHDa5LR5lKPnph0Jsl-1" target="tshHDa5LR5lKPnph0Jsl-2">
          <mxGeometry relative="1" as="geometry" />
        </mxCell>
        <mxCell id="tshHDa5LR5lKPnph0Jsl-8" value="" style="edgeStyle=orthogonalEdgeStyle;rounded=0;orthogonalLoop=1;jettySize=auto;html=1;" edge="1" parent="1" source="tshHDa5LR5lKPnph0Jsl-1" target="tshHDa5LR5lKPnph0Jsl-7">
          <mxGeometry relative="1" as="geometry" />
        </mxCell>
        <mxCell id="tshHDa5LR5lKPnph0Jsl-1" value="Login" style="rounded=0;whiteSpace=wrap;html=1;" vertex="1" parent="1">
          <mxGeometry x="110" y="60" width="120" height="60" as="geometry" />
        </mxCell>
        <mxCell id="tshHDa5LR5lKPnph0Jsl-5" value="" style="edgeStyle=orthogonalEdgeStyle;rounded=0;orthogonalLoop=1;jettySize=auto;html=1;" edge="1" parent="1" source="tshHDa5LR5lKPnph0Jsl-2" target="tshHDa5LR5lKPnph0Jsl-4">
          <mxGeometry relative="1" as="geometry" />
        </mxCell>
        <mxCell id="tshHDa5LR5lKPnph0Jsl-2" value="SignUp" style="rounded=0;whiteSpace=wrap;html=1;" vertex="1" parent="1">
          <mxGeometry x="310" y="60" width="120" height="60" as="geometry" />
        </mxCell>
        <mxCell id="tshHDa5LR5lKPnph0Jsl-6" style="edgeStyle=orthogonalEdgeStyle;rounded=0;orthogonalLoop=1;jettySize=auto;html=1;exitX=0.5;exitY=0;exitDx=0;exitDy=0;entryX=0.5;entryY=0;entryDx=0;entryDy=0;" edge="1" parent="1" source="tshHDa5LR5lKPnph0Jsl-4" target="tshHDa5LR5lKPnph0Jsl-1">
          <mxGeometry relative="1" as="geometry" />
        </mxCell>
        <mxCell id="tshHDa5LR5lKPnph0Jsl-4" value="Build Profile" style="rounded=0;whiteSpace=wrap;html=1;" vertex="1" parent="1">
          <mxGeometry x="510" y="60" width="120" height="60" as="geometry" />
        </mxCell>
        <mxCell id="tshHDa5LR5lKPnph0Jsl-11" value="" style="edgeStyle=orthogonalEdgeStyle;rounded=0;orthogonalLoop=1;jettySize=auto;html=1;" edge="1" parent="1" source="tshHDa5LR5lKPnph0Jsl-7" target="tshHDa5LR5lKPnph0Jsl-10">
          <mxGeometry relative="1" as="geometry" />
        </mxCell>
        <mxCell id="tshHDa5LR5lKPnph0Jsl-14" value="" style="edgeStyle=orthogonalEdgeStyle;rounded=0;orthogonalLoop=1;jettySize=auto;html=1;" edge="1" parent="1" source="tshHDa5LR5lKPnph0Jsl-7" target="tshHDa5LR5lKPnph0Jsl-13">
          <mxGeometry relative="1" as="geometry" />
        </mxCell>
        <mxCell id="tshHDa5LR5lKPnph0Jsl-7" value="Admin Home/ Sales Home/ Officer Home" style="rounded=0;whiteSpace=wrap;html=1;" vertex="1" parent="1">
          <mxGeometry x="110" y="200" width="120" height="60" as="geometry" />
        </mxCell>
        <mxCell id="tshHDa5LR5lKPnph0Jsl-10" value="Function" style="rounded=0;whiteSpace=wrap;html=1;" vertex="1" parent="1">
          <mxGeometry x="110" y="340" width="120" height="60" as="geometry" />
        </mxCell>
        <mxCell id="tshHDa5LR5lKPnph0Jsl-15" style="edgeStyle=orthogonalEdgeStyle;rounded=0;orthogonalLoop=1;jettySize=auto;html=1;exitX=0.5;exitY=0;exitDx=0;exitDy=0;entryX=0;entryY=0.5;entryDx=0;entryDy=0;" edge="1" parent="1" source="tshHDa5LR5lKPnph0Jsl-13" target="tshHDa5LR5lKPnph0Jsl-1">
          <mxGeometry relative="1" as="geometry" />
        </mxCell>
        <mxCell id="tshHDa5LR5lKPnph0Jsl-13" value="Logout" style="rounded=0;whiteSpace=wrap;html=1;" vertex="1" parent="1">
          <mxGeometry x="-90" y="200" width="120" height="60" as="geometry" />
        </mxCell>
      </root>
    </mxGraphModel>
  </diagram>
</mxfile>
